<svg width="308" height="103" viewBox="0 0 308 103" fill="none" xmlns="http://www.w3.org/2000/svg">
<path fill-rule="evenodd" clip-rule="evenodd" d="M244.553 0.616856C244.156 0.956215 243.421 1.8709 242.921 2.64947C242.421 3.42822 241.984 4.06524 241.953 4.06524C241.921 4.06524 241.345 3.23152 240.675 2.21255C240.005 1.19341 239.397 0.358272 239.325 0.356682C239.014 0.349081 238.994 1.36504 239.283 2.7322C239.453 3.54648 239.543 4.3422 239.482 4.50041C239.422 4.65877 239.088 4.90691 238.74 5.05203C238.124 5.30886 238.088 5.30142 237.427 4.77895C236.089 3.72129 234.132 4.32153 233.459 5.99498C232.78 7.69321 233.423 8.16158 234.71 6.90348C235.548 6.08372 235.876 6.09838 237.005 7.00635L237.743 7.59881L239.245 6.71578C240.072 6.23007 240.794 5.83273 240.847 5.83273C240.904 5.83273 241.034 6.17068 241.141 6.58391C241.246 6.99716 241.365 7.43162 241.406 7.5495C241.45 7.68965 241.789 7.55428 242.379 7.15837C242.874 6.82519 243.576 6.50634 243.936 6.44959C244.997 6.28309 245.759 5.82232 246.999 4.59813C247.765 3.84148 248.202 3.25679 248.274 2.89287C248.388 2.30588 248.171 1.29098 247.756 0.486062C247.523 0.0337592 247.429 0 246.391 0C245.373 0 245.212 0.0539097 244.553 0.616856ZM190.723 0.352262C190.088 0.607488 189.062 1.75388 188.001 3.38971L186.996 4.94174L186.303 4.35051C185.911 4.01521 185.385 3.28738 185.089 2.66893C184.382 1.19288 184.014 1.24927 184.029 2.83118C184.034 3.46129 184.103 4.22803 184.18 4.53504C184.298 5.00095 184.261 5.12538 183.956 5.28835C183.665 5.44372 183.472 5.41137 183.007 5.12857C182.621 4.89366 182.113 4.7733 181.503 4.77294C180.67 4.77223 180.541 4.82721 180.151 5.34668C179.664 5.99447 178.97 7.31479 178.97 7.59316C178.97 7.96858 180.044 7.78264 180.46 7.3351C180.963 6.79355 181.561 6.77003 182.095 7.27077L182.498 7.6483L183.997 7.00565C184.822 6.65215 185.609 6.36299 185.747 6.36299C186.242 6.36299 186.603 7.69001 186.213 8.07869C186.069 8.22186 186.111 8.3249 186.368 8.46189C186.769 8.67593 187.052 8.43662 187.544 7.46768C187.8 6.9634 187.922 6.89322 188.546 6.89322C189.845 6.89322 192.131 5.43487 192.91 4.10854C193.751 2.67653 193.407 0.781234 192.233 0.372587C191.578 0.144935 191.248 0.140515 190.723 0.352262ZM246.239 2.15634C246.597 2.51409 246.478 2.95118 245.887 3.4482C245.342 3.90457 245.064 4.04828 244.194 4.31869C243.818 4.43517 243.806 4.41256 243.981 3.9447C244.19 3.39201 245.53 1.94424 245.833 1.94424C245.94 1.94424 246.122 2.03969 246.239 2.15634ZM191.51 3.10249C191.588 3.9037 191.017 4.50235 189.774 4.92123C188.572 5.32617 188.504 5.25617 188.984 4.11012C189.459 2.97522 190.061 2.50913 191.006 2.54555C191.374 2.5597 191.467 2.66167 191.51 3.10249ZM133.923 3.47613C133.858 3.54083 133.805 3.8526 133.805 4.169C133.805 4.60522 134.032 5.01384 134.746 5.86278C136.233 7.63045 136.955 8.70739 137.653 10.1942C138.236 11.4376 138.309 11.7572 138.375 13.3646C138.486 16.0678 138.667 15.9354 134.98 15.8488C132.356 15.7871 131.813 15.7252 131.138 15.4106C130.029 14.8943 129.937 14.7975 128.591 12.726C127.146 10.5032 127.291 10.672 127.043 10.9194C126.89 11.0718 126.935 11.7162 127.225 13.5143L127.61 15.9064L127.21 16.5217C126.74 17.2435 126.474 17.218 125.392 16.3474C123.791 15.0592 123.141 15.0329 122.165 16.2168C120.599 18.1166 120.356 18.7902 121.076 19.2388C121.421 19.4545 121.529 19.3984 122.38 18.5596L123.308 17.6453L124.276 18.1904C125.053 18.6278 125.449 18.7355 126.284 18.7355C127.207 18.7355 127.437 18.6575 128.307 18.0488L129.289 17.3619L131.148 17.7936C132.852 18.1891 133.238 18.216 135.748 18.1136C138.337 18.0081 138.628 17.9585 141.061 17.2078C142.477 16.7709 144.193 16.1077 144.875 15.7341C145.557 15.3604 147.622 14.2126 149.464 13.1834C151.306 12.154 152.96 11.312 153.139 11.312C153.805 11.312 153.431 12.0237 151.78 13.9022C149.524 16.4681 148.444 18.0562 148.011 19.4424C147.51 21.0486 147.015 22.1313 146.625 22.4759C146.442 22.6377 145.256 23.1426 143.99 23.5982C131.467 28.1022 123.901 32.1338 122.483 35.058C122.04 35.9714 121.996 37.3982 122.393 37.9641C122.979 38.7999 125.51 39.592 127.593 39.592C128.576 39.592 128.671 39.5576 128.77 39.1639C129.058 38.0188 128.531 37.6998 125.702 37.3066L123.71 37.0297V36.4917C123.71 35.207 126.647 33.2764 132.742 30.5541C138.739 27.8766 150.099 23.6181 156.476 21.6578C163.975 19.3526 167.932 17.5242 167.374 16.6222C167.051 16.1014 164.768 16.7214 155.268 19.9096C151.633 21.1297 148.617 22.0868 148.567 22.0364C148.423 21.8927 148.859 19.9644 149.226 19.1215C149.409 18.702 149.86 18.021 150.228 17.6083C150.596 17.1954 151.588 16.0865 152.433 15.1437C155.329 11.9127 155.929 10.5995 155.03 9.45875C154.678 9.01263 154.573 8.98064 153.776 9.07486C153.23 9.13936 152.366 9.47077 151.459 9.9639C146.745 12.5248 141.903 14.7376 140.537 14.9557L139.827 15.069L139.827 13.9416C139.826 11.7022 139.354 9.79387 138.301 7.76991C137.175 5.60438 136.254 4.32542 135.413 3.76017C134.83 3.36761 134.16 3.23999 133.923 3.47613ZM112.817 4.51859C112.154 4.8608 111.131 5.83963 110.289 6.93742C109.934 7.39927 109.511 7.77697 109.349 7.77697C109.164 7.77697 108.761 7.26052 108.278 6.40805C107.85 5.65211 107.364 5.01315 107.193 4.98116C106.913 4.92849 106.883 5.11707 106.883 6.98762C106.883 8.79754 106.849 9.0388 106.603 8.94476C106.449 8.88573 106.167 8.83747 105.975 8.83747C105.784 8.83747 105.423 8.63317 105.172 8.38342C104.792 8.00357 104.612 7.94735 104.07 8.03856C103.233 8.17979 102.137 8.80284 101.707 9.38238C101.48 9.68729 101.387 10.0547 101.425 10.4897L101.481 11.1407L102.19 10.7586C103.844 9.86633 103.944 9.85326 104.676 10.4333C105.484 11.0742 105.994 11.0937 106.845 10.5166C107.204 10.2736 107.668 10.0747 107.876 10.0747C108.231 10.0747 108.245 10.1263 108.099 10.9033C107.985 11.5159 108.002 11.7687 108.167 11.8728C108.601 12.148 108.817 12.008 109.308 11.1338C109.671 10.4896 109.878 10.2826 110.071 10.3731C110.526 10.5857 112.187 10.4494 112.825 10.1472C113.705 9.73077 114.704 8.66532 115.279 7.52988C115.698 6.70358 115.76 6.4137 115.661 5.75073C115.457 4.39488 114.152 3.82928 112.817 4.51859ZM214.784 5.42426C214.598 5.79472 214.178 6.86619 213.849 7.80543C213.276 9.4409 213.26 9.5565 213.465 10.5451C214.089 13.5604 217.088 12.6588 218.929 8.90181L219.42 7.90265L218.899 7.47952C218.613 7.24673 217.9 6.73486 217.316 6.34194C216.732 5.94904 216.21 5.45502 216.158 5.24415C216.095 4.9921 215.901 4.84169 215.591 4.80563C215.199 4.75969 215.064 4.86343 214.784 5.42426ZM114.11 7.03057C114.036 7.89134 113.421 8.31022 112.047 8.43449C111.353 8.49723 110.957 8.46682 110.957 8.35089C110.957 8.25066 111.318 7.76761 111.76 7.27732C112.555 6.39516 112.965 6.20214 113.756 6.33787C114.104 6.39762 114.156 6.49854 114.11 7.03057ZM216.165 8.30723C216.519 8.66107 216.651 9.61888 216.369 9.79264C216.287 9.84354 215.888 9.93791 215.484 10.0024L214.748 10.12L214.75 9.43453C214.754 8.32544 214.914 7.95372 215.388 7.95372C215.62 7.95372 215.97 8.1128 216.165 8.30723ZM199.633 8.61654C199.589 8.68936 199.668 9.03562 199.808 9.38576C200.003 9.87075 200.432 10.2699 201.605 11.0599C202.453 11.6303 203.993 12.9345 205.026 13.9581C207.384 16.2915 208.141 17.6608 208.306 19.8843L208.411 21.2983L207.452 22.1179C206.83 22.6497 205.904 23.1797 204.816 23.6265C202.567 24.5511 200.862 25.5221 200.027 26.3553C199.411 26.9708 199.339 27.1352 199.339 27.9264C199.339 28.4126 199.376 28.8103 199.421 28.8103C199.467 28.8103 201.424 27.7769 203.771 26.5139C212.294 21.9268 217.502 19.438 222.452 17.5866C229.718 14.8687 233.863 13.0713 234.51 12.3562C234.764 12.0783 234.782 11.9382 234.616 11.5764C234.506 11.3337 234.336 11.1352 234.239 11.1352C234.143 11.1352 232.367 11.6835 230.296 12.3536C227.129 13.3767 225.21 14.169 218.306 17.3025C213.785 19.3544 209.995 21.0332 209.884 21.0332C209.447 21.0332 209.257 20.5691 209.257 19.4976C209.257 18.0838 208.429 15.4451 207.603 14.2283C206.173 12.1225 204.254 10.5039 201.537 9.11251C200.332 8.49582 199.792 8.35495 199.633 8.61654ZM240.469 9.83983C239.704 10.1467 238.684 14.7086 239.272 15.195C239.765 15.6033 240.271 18.3945 240.7 23.064C240.85 24.7158 241.453 28.9709 242.038 32.5201C245.763 55.1012 247.514 67.637 247.514 71.7229V73.5491L248.178 73.4942C248.816 73.4417 248.852 73.4035 249.063 72.5558C249.39 71.2398 249.854 65.6452 249.861 62.9227C249.863 61.6081 249.733 59.5845 249.567 58.4157C248.709 52.2974 247.893 46.9354 247.326 43.657C246.781 40.5016 245.949 35.7671 245.295 32.0801C243.916 24.325 243.78 23.4161 243.889 22.7603C243.952 22.3937 244.084 22.0937 244.181 22.0937C244.279 22.0937 245.006 22.6928 245.795 23.4252C246.586 24.1579 247.355 24.7314 247.505 24.7001C247.913 24.6159 247.792 23.284 247.238 21.7156C246.326 19.1391 242.222 11.1746 241.262 10.1189C240.886 9.70533 240.843 9.69029 240.469 9.83983ZM280.625 11.3616C280.197 11.9723 279.475 13.5924 278.872 15.2938C278.249 17.0533 278.303 17.596 279.184 18.4371C279.567 18.803 279.863 18.9092 280.551 18.9285C281.795 18.9633 281.724 18.9859 282.93 18.1824C284.281 17.2822 284.887 16.388 284.887 15.2924C284.887 14.6006 284.795 14.4019 284.201 13.8102C283.824 13.4342 283.127 12.984 282.652 12.8097C281.636 12.4377 281.345 12.134 281.345 11.455C281.345 10.8593 281.009 10.8158 280.625 11.3616ZM186.594 12.6818C185.424 14.0938 185.187 16.4006 186.035 18.1327C186.446 18.9726 186.622 19.7488 186.935 22.0937C187.977 29.895 189.585 39.8831 191.02 47.4573C191.518 50.0819 192.231 54.4566 192.606 57.1784C194.051 67.6755 194.694 70.738 195.261 69.8233C195.968 68.68 196.176 62.8859 195.711 57.224C195.398 53.4092 194.721 48.0623 194.282 45.9413C194.2 45.5452 194.321 45.394 195.213 44.7773C195.777 44.3872 197.634 43.3543 199.339 42.4814C204.31 39.9363 207.784 37.5992 208.108 36.5822C208.264 36.0918 209.884 36.0947 210.851 36.5871C211.794 37.067 212.292 37.0317 212.855 36.4448C213.253 36.0308 213.331 35.7906 213.331 34.9845C213.331 34.1714 213.23 33.8669 212.689 33.0498C210.838 30.2545 208.293 28.7073 207.016 29.6003C206.463 29.9869 205.948 31.2255 205.625 32.9457C205.366 34.3251 205.364 34.5673 205.605 35.3887C205.85 36.2245 205.848 36.334 205.573 36.7031C204.993 37.4793 198.098 41.6877 195.644 42.7624C194.151 43.4162 193.708 43.4472 193.593 42.9059C193.269 41.3863 190.514 24.6552 190.577 24.592C190.735 24.434 192.191 25.206 193.282 26.0262C193.896 26.488 194.474 26.866 194.566 26.866C195.139 26.866 194.196 24.1409 192.456 20.7681C190.927 17.8027 187.509 12.019 187.287 12.019C187.208 12.019 186.896 12.3173 186.594 12.6818ZM52.6844 13.057C51.0269 13.6003 49.9845 14.6108 48.9666 16.6608C48.2814 18.041 48.2363 18.2093 48.4871 18.4594C48.8335 18.8051 49.3768 18.8086 50.4878 18.4723C51.0812 18.2925 52.158 18.2084 53.8812 18.2071L56.405 18.2052V18.6241C56.405 18.9604 56.0822 19.2456 54.7666 20.0711C53.379 20.9422 51.4266 22.3104 50.8422 22.8218C50.7483 22.904 50.7808 23.0818 50.9206 23.2501C51.3526 23.7695 53.2423 23.2914 56.1755 21.9205C57.8484 21.1385 58.4391 20.6578 59.7625 19.0006C61.0593 17.3773 61.5823 16.2141 61.6794 14.7393L61.7618 13.4826L61.1644 13.2585C60.4655 12.996 53.3838 12.8278 52.6844 13.057ZM172.059 14.0958C171.363 16.3279 171.315 16.8951 171.704 18.2787C172.319 20.4731 173.469 26.5986 174.109 31.0892C174.449 33.481 174.963 36.6711 175.249 38.1779C175.758 40.8541 176.777 46.3652 178.011 53.1131C179.132 59.2451 179.856 63.6285 179.856 64.2821C179.856 64.8169 179.718 65.0591 179.056 65.6923C177.772 66.9205 175.323 68.0589 170.144 69.8349C161.77 72.707 156.011 77.4256 149.91 86.4134C146.581 91.317 143.329 93.6853 139.941 93.6735C138.6 93.6686 137.639 93.2592 136.841 92.3535C135.668 91.0189 135.116 88.954 135.269 86.4686C135.37 84.8244 135.956 83.1384 138.105 78.3108C141.279 71.1795 144.244 67.5177 146.843 67.5184C147.485 67.5186 147.566 67.5787 148.027 68.3991C148.699 69.592 150.009 70.8953 151.032 71.3879C152.095 71.8996 153.838 72.0815 154.466 71.7461C154.915 71.5066 154.918 71.4883 154.85 69.6439C154.77 67.4639 154.401 66.4824 153.033 64.8154C152.571 64.2519 152.233 63.6891 152.281 63.5642C152.329 63.4395 153.392 62.9312 154.643 62.4345C158.393 60.9465 163.608 59.0221 163.684 59.0979C163.723 59.137 163.545 59.9938 163.289 61.0017C162.908 62.5018 162.834 63.1453 162.882 64.5466C162.938 66.1622 162.97 66.2891 163.461 66.7996C163.996 67.3564 165.561 68.0486 166.286 68.0486C166.778 68.0486 167.155 67.2954 167.526 65.5741C168.013 63.3202 168.012 63.3439 167.542 63.1301C167.142 62.9482 167.086 62.9902 166.697 63.7686C166.468 64.2269 166.071 64.7197 165.815 64.8636C165.374 65.1105 165.318 65.0962 164.809 64.6096C164.353 64.1735 164.269 63.9614 164.269 63.2357C164.269 62.2439 164.711 59.9715 165.083 59.0489C165.23 58.6834 165.542 58.3208 165.822 58.191C166.088 58.0674 167.462 57.421 168.874 56.7548C170.287 56.0885 171.742 55.49 172.108 55.4247C173.404 55.1937 174.823 53.2593 175.457 50.8588C175.645 50.1478 175.639 49.9811 175.421 49.7774C175.267 49.6344 172.711 49.1337 169.14 48.5474C154.914 46.2117 146.5 45.2552 140.141 45.2501C137.213 45.2481 136.921 45.278 135.802 45.6951C132.66 46.8666 131.118 48.9096 131.407 51.5201C131.579 53.0812 132.185 55.3195 132.588 55.8839C133.833 57.6297 139.58 61.2839 143.237 62.6553C143.699 62.8289 144.078 63.0262 144.078 63.0939C144.078 63.1616 143.381 63.7047 142.528 64.301C138.614 67.0392 132.542 71.7148 129.349 74.4491C128.409 75.2546 126.738 76.9082 125.638 78.1234C124.537 79.3384 122.039 81.9243 120.086 83.8697C111.526 92.3979 105.904 96.2393 101.438 96.6111C100.236 96.7112 99.952 96.677 99.3231 96.3571C98.5273 95.9518 97.4715 94.8272 96.9628 93.8435C96.0178 92.0145 95.7885 88.3916 96.4251 85.3452C97.2195 81.5418 99.4017 76.479 101.481 73.6162C103.41 70.9587 104.588 67.7298 104.912 64.2085C105.16 61.5138 104.63 57.4378 101.956 41.492C100.607 33.4475 99.5391 26.866 99.5835 26.866C99.6279 26.866 100.421 27.5064 101.347 28.2888C102.295 29.0902 103.156 29.6857 103.318 29.6522C104.273 29.4553 103.005 26.8061 97.0518 16.5703C96.5918 15.7793 96.248 15.3772 96.0317 15.3772C95.6246 15.3772 95.1204 16.4649 94.7322 18.1813L94.4504 19.4258L95.0839 22.483C95.8109 25.9924 96.5699 30.192 97.842 37.7467C98.3343 40.6689 99.2592 45.6402 99.8976 48.7934C102.087 59.6073 102.872 65.35 102.307 66.4039C101.71 67.5173 96.541 69.8934 92.0055 71.1395C89.0831 71.9423 85.5507 73.8291 81.5557 76.7216C78.9507 78.6073 77.6774 79.7017 76.6335 80.9513C69.2691 89.768 65.8504 93.3097 63.4541 94.6052C62.6802 95.0236 62.3518 95.0913 61.0943 95.0913C59.8392 95.0913 59.5 95.0219 58.6863 94.5973C55.7664 93.0751 55.431 87.9417 57.8529 81.8421C59.8128 76.9059 63.8831 70.4846 67.2415 67.03C68.3881 65.8507 69.3193 65.338 73.3197 63.6828C79.2793 61.2173 84.5904 59.8805 89.4375 59.6267C91.1698 59.5358 92.0151 59.5874 94.009 59.906C96.0124 60.2259 96.5049 60.2559 96.7288 60.0704C97.5717 59.3722 99.525 55.8546 99.3594 55.3336C99.2825 55.0914 98.9982 54.9843 98.1906 54.8932C95.515 54.5911 88.5547 53.2729 83.8583 52.1788C82.4221 51.8441 80.3062 51.1313 77.8361 50.1496C73.5853 48.4605 69.6896 47.1309 66.7663 46.3721C64.893 45.8859 64.6648 45.867 60.8329 45.8779C58.3797 45.8846 56.4651 45.9726 55.852 46.1065C54.0549 46.499 52.8953 47.914 52.2331 50.5216C52.0767 51.1376 51.9944 51.687 52.05 51.7426C52.1421 51.8345 54.2114 52.0217 60.2131 52.4811L62.3384 52.6439L62.9001 52.1059L63.4621 51.5681L65.4684 52.2849C68.298 53.2955 72.9577 54.8858 75.3564 55.6598C77.0408 56.2029 77.403 56.3814 77.4485 56.6913C77.4813 56.9154 77.3744 57.1328 77.1827 57.2318C77.0063 57.323 74.5905 58.1599 71.8142 59.0921C62.3086 62.2831 59.7379 62.8365 58.0983 62.0444C56.6119 61.3263 55.4626 60.0872 54.3672 58.0216C53.1854 55.7934 51.7821 53.7204 51.026 53.0852C50.5452 52.6815 50.3706 52.6397 49.503 52.721C48.1502 52.8477 46.6757 53.4398 45.5257 54.3172C42.417 56.6898 41.7761 57.2396 40.9911 58.208C38.6872 61.0493 37.7596 64.1987 37.7343 69.2629L37.719 72.3333L36.4794 73.0368C35.7975 73.4238 34.1338 74.3305 32.7823 75.0515C29.976 76.5489 28.607 77.4343 26.4721 79.1326C24.1948 80.9448 20.5497 84.6349 18.3037 87.4025C14.6114 91.9526 11.5132 94.8451 8.99763 96.0916C5.58157 97.7843 3.01302 96.578 1.6903 92.6598C1.40036 91.8011 1.32154 91.1268 1.32154 89.5074C1.32154 87.6309 1.37574 87.2859 1.92941 85.6346C2.53107 83.8404 4.09342 80.5388 5.40905 78.2811C5.78347 77.639 6.25639 76.6689 6.46024 76.1253C6.89346 74.9695 8.08016 73.794 9.79572 72.8208C10.778 72.2635 10.9549 72.0707 11.5796 70.8765C13.0488 68.0674 13.7743 65.7053 14.001 62.9911C14.0864 61.9702 14.0609 61.5216 13.9125 61.4302C13.5572 61.2108 13.25 61.6411 12.7497 63.059C11.7808 65.8045 10.6058 67.4681 9.34229 67.8844C8.08634 68.2979 6.27941 67.093 5.45245 65.2904C4.70962 63.6712 4.46609 62.0469 4.56757 59.3879C4.67118 56.6741 4.88709 55.7143 6.41579 51.1689C7.25728 48.6672 7.96308 47.0989 10.6329 41.7992C12.3965 38.2984 13.8823 35.2101 13.9348 34.9362C14.0538 34.3146 13.7311 34.158 13.1347 34.5479C12.3924 35.0334 8.22716 41.9608 6.59485 45.4246C3.30596 52.4042 2.03072 57.4984 2.03019 63.6585C2.02983 67.5497 2.96767 70.1151 5.39771 72.8699L6.103 73.6698L4.25372 77.2663C2.28187 81.1014 1.06826 83.9971 0.412751 86.4306C0.0850856 87.6474 0.00679902 88.4033 0.000599922 90.4074C-0.00613053 92.6765 0.0363774 93.0139 0.512822 94.4727C1.10617 96.2889 1.67489 96.95 3.93597 98.4517C5.84725 99.7214 6.67172 99.9542 9.20326 99.939C11.6395 99.9247 12.9707 99.6309 14.767 98.7115C16.5409 97.804 16.6395 97.7162 19.919 94.1192C21.6032 92.2721 23.3517 90.3632 23.805 89.8772C24.258 89.391 25.2755 88.2583 26.0661 87.3599C27.841 85.3425 28.9836 84.3002 30.8117 83.0312C32.3391 81.9708 35.3678 80.4043 37.3648 79.6416C38.0467 79.3813 38.7878 79.0922 39.0115 78.9992C39.2353 78.9063 40.5504 78.8305 41.934 78.8307C44.5051 78.8314 45.4271 78.9863 51.7285 80.4754C53.0134 80.779 53.3102 80.6622 53.5631 79.7533C53.8514 78.7181 53.7933 76.4155 53.4615 75.718C52.7711 74.2661 49.7873 72.7924 46.5149 72.2868C44.7855 72.0198 43.387 71.2682 42.007 69.8646C41.3596 69.2062 40.5818 68.3299 40.2787 67.9174C39.7806 67.24 39.7461 67.1118 39.9196 66.5869C40.3841 65.1829 41.7024 63.3099 43.2428 61.8657C45.2603 59.9746 46.4354 59.1935 47.4313 59.0813C48.1386 59.0018 48.2784 59.0541 48.9325 59.6437C49.3719 60.0398 49.7687 60.6178 49.9478 61.1226C51.5245 65.5643 53.9787 67.9277 57.516 68.4108C58.9385 68.6049 60.3346 68.4398 62.7728 67.7892C63.3043 67.6473 63.7598 67.5524 63.7854 67.5776C63.8109 67.6031 63.4249 68.2962 62.9275 69.1177C59.3281 75.0622 56.1055 81.2692 55.1936 84.0129C54.6424 85.6725 54.6339 85.7505 54.6339 89.1336V92.5693L55.2746 93.8471C56.8025 96.8951 59.5104 98.4378 63.3482 98.4465C66.6004 98.4537 69.0868 97.2861 71.8931 94.4336C72.9034 93.4069 73.9431 92.0912 75.7254 89.5839C77.7657 86.7139 81.0939 83.312 84.0811 81.0427C85.897 79.6632 94.7976 75.8621 97.7176 75.219C98.1473 75.1243 98.2047 75.1636 98.2047 75.5522C98.2047 75.7944 97.5336 77.3666 96.7136 79.0464C94.1485 84.2994 93.2933 87.6166 93.4717 91.6217C93.5885 94.2434 94.0613 96.1962 95.1043 98.3657C96.4908 101.249 98.2329 102.54 101.239 102.909C105.988 103.492 109.575 101.382 117.333 93.4404C124.718 85.8814 131.753 78.9177 134.16 76.7855C137.494 73.8311 138.587 72.9273 138.587 73.1253C138.587 73.2191 137.862 74.7957 136.976 76.6282C136.089 78.461 135.008 80.9111 134.572 82.0731L133.78 84.1859L133.837 87.8268L133.894 91.4678L134.673 93.0586C135.683 95.1211 137.279 96.7782 138.853 97.3978C139.762 97.7555 140.223 97.8163 142.041 97.8163C143.827 97.8163 144.326 97.753 145.167 97.4201C148.138 96.2427 151.239 93.2233 153.82 88.9933C155.868 85.6361 159.037 82.1699 162.125 79.9101C164.452 78.2069 167.595 76.6369 172.226 74.8633C176.98 73.0426 177.793 72.6036 179.428 70.9764C182.083 68.3328 182.922 64.9588 182.264 59.5646C181.657 54.582 179.647 42.4003 177.191 28.8103C176.884 27.1089 176.597 25.3592 176.554 24.9218L176.476 24.1264L176.782 24.5683C176.95 24.8112 177.519 25.4278 178.045 25.9379C178.755 26.6258 179.136 26.866 179.518 26.866C180.175 26.866 180.182 26.5928 179.567 24.888C178.371 21.5682 173.394 12.9027 172.683 12.9027C172.527 12.9027 172.29 13.3559 172.059 14.0958ZM282.174 14.795C283.925 15.3636 284.001 15.5662 282.847 16.5791C281.977 17.3435 281.589 17.4763 280.567 17.3573C279.901 17.2797 279.897 17.2739 280.013 16.6374C280.291 15.1255 280.495 14.3167 280.596 14.3167C280.654 14.3167 281.365 14.532 282.174 14.795ZM110.015 14.8118C109.598 15.2715 108.981 17.7375 108.967 19.0006C108.96 19.6471 109.141 20.7164 109.43 21.7402C109.692 22.6678 109.95 24.1313 110.007 25.01C110.063 25.8849 110.418 28.4302 110.795 30.6661C112.456 40.515 114.241 53.69 115.739 67.1513C116.036 69.8172 116.396 72.5614 116.54 73.2493C116.684 73.9372 116.802 74.5197 116.802 74.5441C116.802 74.5684 116.996 74.5883 117.233 74.5883C117.731 74.5883 117.76 74.5166 118.11 72.4673C119.397 64.9371 119.327 62.8202 117.427 51.6993C117.095 49.755 116.538 46.2553 116.189 43.9222C115.84 41.5892 115.35 38.3281 115.099 36.6756C114.031 29.6571 113.503 25.8054 113.607 25.8054C113.669 25.8054 114.224 26.3687 114.842 27.0573C116.014 28.3637 116.559 28.7171 116.935 28.4146C117.887 27.6487 115.494 22.1513 111.797 16.6145C110.26 14.3116 110.369 14.4215 110.015 14.8118ZM87.0463 17.135C84.3653 17.7729 72.9021 21.6744 63.2241 25.2428C47.7375 30.9532 36.8262 35.5442 27.0036 40.4823C21.0108 43.4953 18.7903 45.0892 19.124 46.1384C19.2844 46.6427 19.5563 46.5777 21.0997 45.6643C24.6079 43.5887 33.3434 39.3733 40.2626 36.4169C52.8052 31.0584 71.8281 24.0285 83.3268 20.5026C86.1281 19.6438 88.4606 18.5774 88.9802 17.9182C89.333 17.4705 89.4935 16.5948 89.216 16.6323C89.1429 16.6422 88.1665 16.8684 87.0463 17.135ZM35.2911 20.0701C33.9078 20.8192 32.5807 24.415 32.2073 28.4255C32.1416 29.1291 32.0345 29.7382 31.9688 29.7786C31.9036 29.8188 31.2974 29.0018 30.6222 27.9626C29.2681 25.8787 27.6191 24.0924 26.6225 23.6308C25.9812 23.3334 23.9727 23.2139 23.3872 23.4382C23.1791 23.5177 23.1069 23.7932 23.1069 24.5044C23.1069 25.937 23.4475 26.5729 24.5544 27.2063C25.664 27.8415 26.0677 27.8728 27.0036 27.3962C27.3853 27.2018 27.8007 27.0443 27.9262 27.0461C28.169 27.0497 29.8821 29.4794 30.1667 30.2241C30.2598 30.4672 30.4687 31.1911 30.6308 31.833C30.7928 32.4749 31.078 33.2502 31.2642 33.5563C31.5834 34.08 32.0183 34.2769 32.2003 33.9802C32.2452 33.9071 32.4944 32.5831 32.7545 31.0376C33.6944 25.4524 34.817 22.2659 35.8425 22.2722C35.9979 22.2731 36.4751 22.5514 36.9028 22.8908C37.7999 23.6024 37.778 23.5973 38.3099 23.2255C38.6421 22.9931 38.6923 22.8441 38.593 22.3859C38.4298 21.634 37.9062 20.9298 37.0494 20.3105C36.2505 19.733 35.9813 19.6961 35.2911 20.0701ZM260.166 22.1605C259.038 22.685 258.088 23.5106 257.718 24.2866C257.429 24.8954 257.323 26.3296 257.566 26.343C257.64 26.347 258.043 26.6618 258.467 27.0425L259.233 27.7349L259.014 28.7153C258.893 29.2549 258.841 29.7429 258.897 29.8001C259.121 30.0239 260.161 29.6291 260.773 29.0878C261.128 28.7748 261.937 28.2135 262.569 27.8406C264.47 26.7219 265.904 25.6504 266.03 25.2569C266.268 24.5098 265.864 24.4972 263.649 25.1816C261.511 25.8423 260.773 25.9444 259.751 25.7207C259.258 25.6121 259.204 25.536 259.204 24.9291C259.204 24.3429 259.276 24.2282 259.76 24.0276C260.303 23.8037 260.334 23.8171 260.957 24.5392C261.957 25.7011 262.746 25.4439 262.746 23.9557C262.746 22.7623 262.073 21.7361 261.298 21.742C261.168 21.7429 260.661 21.9312 260.166 22.1605ZM286.884 23.1491C285.597 23.9324 284.615 26.1052 284.165 29.1696C284.044 29.9927 283.889 30.7295 283.822 30.8071C283.755 30.8846 283.519 30.4473 283.295 29.8349C282.3 27.0894 281.112 25.4439 279.621 24.7441C278.682 24.3042 277.552 24.2323 276.754 24.5618C276.272 24.7609 276.207 24.8719 276.207 25.4908C276.207 26.5065 276.662 27.3115 277.572 27.9143C278.769 28.705 279.52 28.9133 279.908 28.5623C280.081 28.407 280.428 28.2799 280.681 28.2799C281.094 28.2799 281.199 28.4311 281.708 29.7382C282.02 30.5403 282.537 31.9657 282.856 32.9066C283.501 34.8066 283.73 35.2937 283.867 35.0631C284.091 34.6893 285.241 30.1544 285.243 29.6421C285.247 28.0891 286.106 26.2172 287.366 25.01L288.103 24.3031L288.796 25.0741C289.536 25.8997 289.915 25.9439 290.181 25.2348C290.396 24.6662 290.246 24.0452 289.737 23.3772C289.338 22.8564 289.206 22.8008 288.375 22.8014C287.774 22.8017 287.258 22.9219 286.884 23.1491ZM229.155 25.1961C229.097 25.3474 229.429 26.463 229.893 27.6757C230.357 28.8883 230.706 29.9104 230.668 29.9473C230.57 30.0438 230.137 30.0923 229.592 30.0682C229.173 30.0499 228.998 29.8191 228.102 28.0958C227.541 27.0224 226.88 25.9287 226.629 25.6655L226.172 25.1867L226.109 25.8054C226.075 26.1457 226.23 27.3493 226.454 28.4803C226.842 30.4493 226.846 30.5564 226.55 31.0059C226.382 31.2642 225.979 31.6011 225.656 31.7548C225.149 31.9957 225.001 32.0008 224.575 31.7919C223.725 31.3741 223.387 30.5083 223.516 29.0753C223.62 27.9311 223.837 26.6875 224.065 25.9379C224.309 25.1316 221.759 26.0065 220.902 27.0226C219.768 28.3681 220.194 30.3124 221.412 29.3534L221.921 28.9531L222.032 30.618C222.206 33.2366 222.856 34.3385 224.371 34.5839C225.241 34.7248 226.317 34.169 227.568 32.9314L228.579 31.9302L229.092 32.4912C229.527 32.9665 229.731 33.0521 230.424 33.0521C230.874 33.0521 231.404 32.9663 231.601 32.8612C232.522 32.3695 232.748 29.973 232.038 28.2495C231.462 26.8537 230.054 24.9218 229.61 24.9218C229.417 24.9218 229.213 25.0453 229.155 25.1961ZM62.5803 29.8244C61.5765 30.8821 61.09 31.6389 60.5626 32.9638C60.1396 34.026 60.0596 34.5135 59.9968 36.4104C59.93 38.4183 59.9571 38.673 60.2929 39.2039C60.6309 39.7383 62.1559 40.6461 62.7233 40.6506C63.1111 40.6537 63.9465 39.8018 64.4361 38.9041C64.8477 38.1498 64.9154 37.8372 64.8708 36.901C64.8253 35.9439 64.7715 35.7917 64.4785 35.7917C64.2146 35.7917 64.0438 36.0766 63.7112 37.0733C63.3095 38.2756 63.251 38.3546 62.7639 38.3546C62.0958 38.3546 61.5431 37.5079 61.5422 36.4828C61.5413 35.5473 62.0555 33.5566 62.8412 31.4539C63.1846 30.5345 63.491 29.6729 63.522 29.5393C63.6365 29.0444 63.1929 29.1789 62.5803 29.8244ZM164.377 30.5039C164.172 31.0361 164.276 31.5589 164.979 33.5478C165.368 34.6467 165.686 35.6523 165.686 35.7823C165.686 36.1566 165.29 36.2127 164.596 35.9365C164.009 35.7028 163.91 35.5535 163.399 34.1283C163.093 33.2741 162.602 32.1963 162.307 31.7334C161.789 30.917 161.762 30.9011 161.427 31.2041C160.978 31.6096 160.984 31.7086 161.622 34.2708C162.121 36.2748 162.142 36.4754 161.889 36.8604C161.606 37.2923 160.603 37.597 160.1 37.4044C159.651 37.2324 159.321 36.1776 159.198 34.5202C159.017 32.0902 158.29 31.3656 157.318 32.6452C156.731 33.4165 156.652 34.3859 157.162 34.5475C157.421 34.6292 157.521 34.8967 157.615 35.7524C157.774 37.1973 158.306 38.2671 159.181 38.8991C159.784 39.3351 159.999 39.3956 160.618 39.3038C161.862 39.1199 162.817 38.6154 163.068 38.0097L163.295 37.4632L163.95 37.9089C165.419 38.9087 166.951 38.1799 167.359 36.2873C167.6 35.1737 166.122 31.079 165.263 30.4786C164.791 30.1486 164.51 30.1564 164.377 30.5039ZM147.274 31.5636C146.304 32.4381 145.461 34.635 144.785 38.0454C144.675 38.6044 144.516 39.0616 144.433 39.0616C144.35 39.0616 143.916 38.5117 143.468 37.8399C141.721 35.2173 140.108 33.8769 138.698 33.8769C137.369 33.8769 136.704 34.5691 136.933 35.7126C137.104 36.5652 137.94 37.0784 139.389 37.221C140.069 37.288 140.833 37.4478 141.088 37.576C141.746 37.9074 143.178 39.5466 143.292 40.0994C143.345 40.355 143.603 41.24 143.866 42.0664C144.246 43.2607 144.419 43.5795 144.71 43.6211C145.042 43.6682 145.098 43.5315 145.298 42.207C145.853 38.5209 147.029 34.5492 147.868 33.5228L148.278 33.0217L149.35 33.5612L150.421 34.101L150.698 33.6799C150.949 33.2976 150.948 33.1798 150.69 32.4041C150.266 31.1306 150.026 30.9311 148.922 30.9311C148.085 30.9311 147.894 31.0046 147.274 31.5636ZM85.2037 31.6192C84.8589 31.9995 84.8327 31.9139 86.1506 34.7047C87.0398 36.5878 87.0416 37.025 86.1606 37.0382C85.3066 37.0507 85.0033 36.7411 84.0867 34.9212C82.8641 32.4937 82.5057 31.9917 81.9961 31.9917C81.44 31.9917 81.4402 32.0839 81.9984 34.8196C82.5124 37.3381 82.5467 38.1259 82.1654 38.6688C81.8379 39.1358 81.2968 39.1675 80.3194 38.7772L79.6075 38.493V36.1899C79.6075 34.2036 79.5647 33.8542 79.2974 33.6517C78.8749 33.3316 77.9993 33.3468 77.5189 33.6826C76.9928 34.0501 76.4192 35.201 76.4192 35.8882V36.4406L77.2385 35.9836C77.6891 35.7323 78.0876 35.5267 78.1242 35.5267C78.1607 35.5267 78.1903 36.4352 78.1903 37.5456C78.1903 39.4486 78.2163 39.5953 78.6391 40.0969C79.3999 40.9994 80.4591 41.1593 82.1907 40.6334C82.8175 40.443 83.5837 39.6939 83.7657 39.0931C83.8341 38.8672 83.9829 38.7179 84.0961 38.7613C85.0732 39.1355 86.8986 39.4347 87.3294 39.2915C88.8607 38.7823 89.045 36.0478 87.7024 33.7592C87.2572 33 85.8296 31.2847 85.6431 31.2847C85.5682 31.2847 85.3705 31.4353 85.2037 31.6192ZM208.336 32.7341C208.453 32.8507 208.549 33.3365 208.549 33.8135C208.549 34.5693 208.509 34.6647 208.239 34.5555C208.068 34.4865 207.71 34.3508 207.442 34.2541C207.082 34.1241 206.955 33.9589 206.955 33.6231C206.955 32.7815 207.823 32.2222 208.336 32.7341ZM210.844 33.2252C211.183 33.406 211.606 34.3607 211.427 34.5394C211.37 34.5964 211.106 34.6429 210.841 34.6429C210.314 34.6429 210.143 34.3781 210.143 33.5679C210.143 33.0239 210.312 32.9412 210.844 33.2252ZM266.555 35.4794C265.866 35.6514 265.279 36.2283 264.712 37.2869C264.091 38.4516 263.376 41.0581 263.181 42.8726C263.114 43.5013 263.004 44.0496 262.936 44.0911C262.869 44.1325 262.381 43.5221 261.852 42.7345C259.437 39.1487 256.828 37.5362 254.732 38.3366C254.279 38.5099 254.246 38.5926 254.246 39.5433C254.246 41.2999 255.178 42.2432 256.911 42.2432C257.456 42.2432 257.725 42.1413 257.965 41.8455L258.29 41.4478L258.792 41.8169C259.886 42.6223 260.818 44.1385 262.394 47.6783C262.674 48.309 262.912 48.6062 263.132 48.6062C263.309 48.6062 263.454 48.5838 263.454 48.5566C263.454 48.1207 264.064 43.7346 264.268 42.6851C264.855 39.6974 265.431 38.2222 266.214 37.7116C266.649 37.4265 266.689 37.4355 267.471 37.9853C268.37 38.6174 268.702 38.5971 268.877 37.8977C269.007 37.3767 268.668 36.6497 267.913 35.836C267.469 35.3583 267.261 35.3031 266.555 35.4794ZM297.922 38.2222C297.574 38.7653 297.328 39.7967 297.191 41.271L297.079 42.5082L298.164 44.7013C298.762 45.9076 299.56 47.7766 299.941 48.8551C300.32 49.9331 301.383 52.4858 302.3 54.5272C304.239 58.8403 305.218 61.377 305.368 62.4566L305.474 63.2235L304.788 63.3363C302.842 63.6571 300.842 63.3883 299.287 62.5972C298.13 62.0082 296.518 60.6125 296.738 60.3917C296.973 60.1583 296.994 58.5643 296.765 58.4231C296.675 58.3673 296.328 58.4513 295.994 58.6099C295.492 58.8492 295.335 59.0686 295.079 59.8942C294.689 61.1483 293.853 62.8206 293.207 63.6332C292.936 63.9766 292.338 64.4447 291.878 64.673C291.177 65.0232 290.858 65.0752 289.854 65.0033C288.587 64.9128 287.05 64.3241 286.005 63.5293C285.429 63.0896 285.427 63.0885 285.507 61.7701C285.552 61.0444 285.638 60.2512 285.698 60.0074C285.79 59.6477 285.745 59.5646 285.463 59.5646C284.837 59.5646 283.941 60.3426 283.302 61.4423C282.385 63.0172 280.914 64.9302 280.056 65.6633C279.643 66.015 278.792 66.5561 278.159 66.8662C277.081 67.3966 276.897 67.4299 275.059 67.4299C272.58 67.4299 271.802 67.1551 270.551 65.8344C269.677 64.9135 268.859 63.4223 268.16 61.4763C267.738 60.3053 266.617 58.6369 265.866 58.065C265.272 57.613 265.149 57.5875 264.104 57.699C261.97 57.9271 260.397 58.9357 258.343 61.3911C256.259 63.8866 254.972 66.1631 254.232 68.6735C253.744 70.3325 253.616 72.9077 253.939 74.5499C254.078 75.2579 254.145 75.8654 254.087 75.8998C254.028 75.9342 253.08 76.329 251.982 76.7766C249.056 77.9685 244.593 80.4756 241.8 82.495C241.336 82.8305 239.908 84.3503 238.626 85.8723C235.436 89.6598 231.177 93.8761 229.272 95.1293C227.295 96.431 226.172 96.7595 224.575 96.505C223.232 96.2907 222.7 96.0532 221.895 95.3074C221.164 94.6302 220.845 93.9865 220.609 92.7132C220.366 91.4019 220.365 90.0289 220.605 88.5532C220.934 86.5285 223.23 81.6665 224.876 79.5082C225.297 78.9574 226.187 77.7815 226.855 76.895C227.523 76.0084 228.431 75.0075 228.873 74.6705L229.677 74.0581H231.937C233.641 74.0581 234.459 73.9772 235.252 73.731C236.528 73.3349 238.104 72.3207 238.743 71.486C241.758 67.5394 240.565 59.9467 235.394 50.2079C234.856 49.1933 234.45 48.3289 234.49 48.2873C234.533 48.2458 234.822 48.3005 235.134 48.4089C235.923 48.6837 236.476 48.6549 236.6 48.3322C236.736 47.977 235.882 46.1013 234.981 44.7818C233.728 42.9481 230.904 40.5445 230.487 40.96C230.191 41.2554 229.942 43.956 230.063 45.5548C230.215 47.5295 230.502 48.5318 231.576 50.8154C235.299 58.7359 237.772 64.7653 237.772 65.9227C237.772 66.5047 237.478 66.7136 235.795 67.3256C231.67 68.8248 228.409 67.7957 226.501 64.3931C225.58 62.7469 225.138 61.3493 224.226 57.1751C222.566 49.5723 221.185 45.5278 219.79 44.1843C219.172 43.5889 219.143 43.5799 218.898 43.9117C218.699 44.1816 218.644 44.9871 218.644 47.676V51.0972L219.355 53.4072C220.679 57.7093 221.832 62.7087 221.832 64.1429C221.832 65.5015 218.279 69.8391 216.262 70.9422C212.756 72.8594 208.512 72.6072 206.247 70.3468C205.39 69.4922 204.569 67.8607 204.288 66.4571C203.85 64.2666 204.097 61.0446 205.194 54.6423C205.383 53.5388 205.538 52.1247 205.538 51.4993C205.538 50.2113 205.411 50.0826 204.341 50.2808C202.24 50.6695 199.734 55.9601 198.358 62.9093C197.137 69.0717 196.061 72.0312 194.633 73.1521C194.272 73.4356 193.906 73.5277 193.142 73.5277C192.296 73.5277 192.008 73.4399 191.386 72.9904C190.084 72.0491 189.194 70.2989 188.588 67.4911C188.339 66.3336 188.27 65.207 188.269 62.26C188.269 59.4314 188.216 58.504 188.053 58.504C187.526 58.504 187.057 60.2485 186.736 63.4123C186.474 65.9848 186.587 66.8559 187.666 70.5825C188.248 72.592 188.529 73.2627 189.159 74.143C191.576 77.523 194.062 78.454 195.86 76.6514C197.383 75.1245 198.576 72.1648 199.255 68.2253C200.201 62.7408 201.318 58.3994 201.992 57.5929L202.338 57.1784L202.34 57.7088C202.341 58.0004 202.187 59.5391 201.997 61.1284C201.671 63.8504 201.666 64.203 201.913 67.2262L202.175 70.4348L203.07 72.2551C204.395 74.9465 206.262 76.8145 208.393 77.5811C210.125 78.204 212.505 78.1395 214.439 77.4169C216.336 76.7089 219.348 74.6015 220.371 73.2672C221.664 71.581 223.072 68.3382 223.072 67.0472C223.072 66.6032 223.149 66.4582 223.382 66.4589C223.602 66.4598 223.821 66.8039 224.135 67.6397C224.723 69.2091 225.858 71.1171 226.86 72.2314C227.31 72.7301 227.678 73.2272 227.678 73.3364C227.678 73.4457 226.833 74.5077 225.802 75.6965C221.304 80.8845 218.311 87.544 218.714 91.4698C218.851 92.8046 219.339 94.3706 220.175 96.1517C220.648 97.1603 220.995 97.6292 221.625 98.1121C223.714 99.7143 225.089 100.212 227.472 100.232C229.559 100.248 230.735 99.9031 233.08 98.5835C234.347 97.8703 235.001 97.339 236.268 95.9953C243.138 88.7062 246.591 85.6985 250.356 83.7153C252.423 82.6266 253.986 82.1775 256.104 82.0628C257.729 81.975 258.083 82.0195 260.356 82.5973C261.719 82.944 263.764 83.4981 264.9 83.829C266.216 84.2131 267.061 84.3764 267.234 84.2804C267.662 84.0404 267.906 83.0193 267.933 81.3517C267.953 80.0699 267.891 79.6755 267.57 79.0678C266.94 77.8713 265.891 77.1271 263.47 76.1639C258.834 74.3186 256.371 72.6633 256.371 71.3951C256.371 70.2067 257.256 68.7917 259.31 66.6966C261.325 64.64 262.307 63.9833 263.36 63.9833C264.208 63.9833 264.564 64.3821 265.487 66.3711C267.023 69.672 268.713 71.7398 270.773 72.8373C271.71 73.3367 272.087 73.4314 273.374 73.4915C276.151 73.6209 278.579 72.7551 280.293 71.0233C280.838 70.4719 281.517 69.5773 281.802 69.0352C282.087 68.493 282.403 68.0493 282.504 68.0488C282.804 68.0484 284.163 68.9673 285.595 70.1414C286.895 71.2067 286.944 71.2295 287.987 71.2289C291.784 71.2259 293.707 69.9406 294.476 66.8924C294.779 65.6948 294.895 65.6047 295.467 66.1325C296.678 67.2485 299.291 68.6836 301.25 69.3081C302.14 69.592 302.472 69.6197 303.174 69.4694C305.267 69.0214 307.047 67.4981 307.661 65.6302C307.935 64.7975 308 64.081 308 61.8623C308 59.1674 307.989 59.088 307.316 57.0017C306.942 55.8352 305.967 53.5037 305.151 51.8206C303.443 48.2916 302.356 45.6714 302.504 45.4326C302.566 45.3339 302.9 45.3703 303.333 45.5226C303.732 45.663 304.256 45.778 304.499 45.778C304.889 45.778 304.927 45.7233 304.821 45.2921C304.62 44.4658 303.593 43.0828 301.463 40.7784C299.466 38.6138 298.628 37.8245 298.327 37.8245C298.244 37.8245 298.063 38.0032 297.922 38.2222ZM44.2919 38.7524C43.5569 39.9012 41.8813 44.6801 41.8813 45.6272C41.8813 46.4202 42.261 47.273 42.6865 47.4359C43.3417 47.6868 45.2632 47.5444 45.9519 47.1937C47.1296 46.5942 48.2576 44.7505 48.2576 43.4253C48.2576 42.3656 47.723 41.6234 46.2639 40.6566C45.2816 40.0058 45.0695 39.7808 45.0695 39.3896C45.0695 38.3625 44.723 38.0785 44.2919 38.7524ZM283.499 40.2332C281.325 40.6148 279.924 40.9457 279.659 41.1408C278.702 41.8477 277.081 45.0345 277.339 45.7047C277.424 45.9217 277.612 45.9713 278.112 45.9083C278.478 45.8623 279.901 45.6833 281.275 45.5108C283.649 45.2128 284.709 45.2373 284.709 45.5901C284.709 45.6775 284.05 46.2638 283.248 46.8929C281.228 48.4748 279.749 49.9581 279.749 50.4036C279.749 50.7381 279.818 50.7611 280.5 50.6525C282.212 50.3795 285.974 48.259 287.195 46.8795C289.141 44.6843 290.199 42.7416 290.199 41.3703C290.199 40.3043 289.93 40.1494 287.278 39.6939C287.083 39.6604 285.382 39.9032 283.499 40.2332ZM45.3515 42.3511C46.1982 42.7521 47.0142 43.7209 46.8933 44.1819C46.7407 44.7648 46.0319 45.2016 44.7737 45.488C43.8687 45.694 43.5338 45.707 43.276 45.5463C42.8743 45.2961 42.8725 45.2434 43.2189 43.9151C43.7017 42.0631 44.1106 41.7635 45.3515 42.3511ZM124.495 42.9716C124.061 43.8096 123.431 46.4941 123.087 48.9677C122.782 51.1702 122.782 51.1901 123.15 51.9084C123.577 52.7452 125.06 53.9085 125.698 53.9085C126.235 53.9085 126.597 53.5245 127.074 52.4487C127.5 51.4882 127.768 49.3131 127.461 49.3131C127.353 49.3131 126.94 49.7903 126.543 50.3737C126.146 50.9568 125.761 51.4341 125.686 51.4341C125.611 51.4341 125.295 51.1718 124.984 50.8512C124.269 50.1156 124.268 49.8819 124.955 46.0678C125.25 44.4287 125.444 42.9371 125.386 42.7537C125.226 42.2514 124.817 42.3518 124.495 42.9716ZM272.217 47.3047C269.502 50.8552 269.054 55.9831 271.307 57.6985C272.06 58.2716 272.497 58.2687 273.192 57.6858C274.183 56.8526 275.387 53.9698 274.956 53.4536C274.611 53.039 274.353 53.1572 273.569 54.0853C272.712 55.097 272.179 55.2196 271.636 54.5297C271.446 54.2879 271.237 53.6688 271.172 53.1538C271.069 52.3289 271.161 51.8923 271.948 49.4981C272.439 48.0025 272.813 46.7504 272.777 46.7155C272.744 46.6809 272.49 46.9459 272.217 47.3047ZM30.5906 50.8918C29.7112 51.5277 29.0856 52.328 28.5705 53.4764C28.2394 54.2144 28.1663 54.7565 28.1004 56.9574C28.0475 58.729 27.9585 59.5637 27.8229 59.5615C27.7133 59.5599 27.2755 58.8382 26.85 57.9575C25.9928 56.1833 24.7348 54.7408 23.5497 54.1731C23.1072 53.9608 22.4508 53.831 21.8004 53.827C20.8836 53.821 20.7185 53.8746 20.4144 54.2781C20.0118 54.8116 20.0951 55.6439 20.6404 56.539L20.9764 57.0902H22.6376C24.5936 57.0902 24.7292 57.1648 26.0901 58.9969C26.8032 59.9567 27.0424 60.4632 27.28 61.5165C27.6584 63.1935 27.8157 63.4887 28.2948 63.4196C28.7588 63.3528 28.8363 62.9728 29.1177 59.3879C29.4333 55.3628 30.2154 52.4245 31.0961 51.9542C31.3795 51.8027 31.464 51.8503 31.6146 52.2453C31.9145 53.0327 32.4987 53.7318 32.8565 53.7318C33.0423 53.7318 33.323 53.5361 33.4799 53.2972C34.0087 52.4916 33.4409 51.2241 32.2817 50.6219C31.6081 50.2723 31.4023 50.3051 30.5906 50.8918ZM143.812 51.2603C147.22 51.4837 153.223 52.0454 158.07 52.5943C163.2 53.1753 163.384 53.2054 163.384 53.4677C163.384 53.5949 162.162 54.1805 160.594 54.8045C157.257 56.1332 152.979 57.9168 149.862 59.2797L147.587 60.2742L146.231 59.1531C144.069 57.3652 140.454 55.0793 136.68 53.1131C134.533 51.9947 134.281 51.66 135.284 51.256C135.806 51.0462 140.584 51.0487 143.812 51.2603ZM124.944 60.3967C124.302 61.4077 123.355 63.8041 123.355 64.4204C123.355 64.7765 123.654 65.0895 124.808 65.9435C127.293 67.7825 128.842 68.3828 129.43 67.7351C129.746 67.3857 131.326 63.3126 131.326 62.845C131.326 62.3932 130.247 61.3297 129.305 60.8533C128.341 60.366 126.106 59.5646 125.712 59.5646C125.58 59.5646 125.235 59.9389 124.944 60.3967ZM72.7611 67.8815C72.454 68.0776 72.0671 68.5234 71.9014 68.8715C71.6111 69.4821 71.6134 69.5176 71.9615 69.8648C72.2917 70.1944 72.3576 70.2024 72.7326 69.9596C73.2152 69.647 74.0913 69.4551 74.2042 69.6376C74.2477 69.708 74.0467 70.5919 73.7573 71.602C73.1312 73.7882 73.1159 74.0764 73.6053 74.5168C73.9014 74.7831 74.2249 74.8484 75.1551 74.8292C75.8016 74.8158 76.6893 74.7081 77.1278 74.5896C79.1809 74.0351 82.6989 70.8287 83.5904 68.6997C83.7859 68.2325 83.7868 68.0785 83.5953 67.8171C83.3837 67.5282 83.1873 67.6766 81.3526 69.5109C78.9935 71.8696 77.7962 72.6331 76.2343 72.7745C75.3798 72.8518 75.1793 72.8205 75.1793 72.6094C75.1793 72.466 75.4591 71.4677 75.8007 70.3908C76.2932 68.8382 76.386 68.3379 76.2479 67.9753C76.0812 67.5374 76.0161 67.5184 74.6967 67.5213C73.621 67.5235 73.1975 67.6024 72.7611 67.8815ZM19.9723 71.9856L19.0517 72.7325L19.0425 74.8801L19.0333 77.0277L18.2004 78.15C17.7424 78.7673 14.913 81.7362 11.9128 84.748C8.91261 87.7596 6.45793 90.285 6.45793 90.3598C6.45793 90.5962 6.79642 90.5097 7.74788 90.03C9.37629 89.2094 11.2729 87.7734 14.5908 84.849C17.7414 82.0718 20.2486 78.648 20.5616 76.6954C20.6686 76.027 20.676 76.0218 21.6668 75.9025C22.9155 75.7528 23.7328 75.4262 23.9709 74.982C24.2379 74.4844 23.9263 73.5536 23.2547 72.8416C22.7418 72.2975 21.2292 71.2237 20.9911 71.2344C20.9371 71.2369 20.4787 71.5749 19.9723 71.9856ZM109.225 71.4509C108.8 71.9702 106.9 76.9803 106.184 79.4742C105.014 83.5473 105.783 87.209 107.879 87.5487C109.227 87.7669 110.942 86.5001 111.405 84.9433C111.661 84.0842 111.77 81.2916 111.557 81.0784C111.497 81.0186 111.258 81.0938 111.025 81.246C110.74 81.4326 110.603 81.6893 110.603 82.0378C110.603 82.7557 110.171 83.714 109.744 83.9419C109.156 84.2558 108.355 84.1628 107.84 83.7207C106.842 82.8638 107.097 80.6713 108.882 74.7436C109.399 73.0306 109.791 71.5394 109.754 71.4297C109.667 71.1676 109.45 71.1764 109.225 71.4509ZM300.937 75.1259C300.334 75.8406 298.879 78.5188 298.879 78.9134C298.879 79.6905 302.82 82.7206 304.1 82.9273C304.373 82.9713 304.617 82.6916 305.211 81.6582C306.122 80.0734 306.568 78.6802 306.404 77.933C306.175 76.8972 304.765 75.8471 302.394 74.948C301.874 74.7503 301.434 74.5885 301.419 74.5885C301.403 74.5883 301.185 74.8303 300.937 75.1259ZM143.65 77.7368C142.679 78.8978 141.997 80.4533 141.76 82.0501C141.532 83.5848 141.598 84.0368 142.156 84.7444C142.528 85.2165 142.594 85.2328 143.764 85.1495C146.393 84.9618 147.797 83.6487 147.797 81.3789C147.797 80.4321 147.728 80.1885 147.317 79.701C147.052 79.3873 146.418 78.9467 145.909 78.7215C145.104 78.3665 144.953 78.2181 144.767 77.5992C144.649 77.2071 144.506 76.8912 144.449 76.8974C144.391 76.9035 144.032 77.2813 143.65 77.7368ZM63.6926 78.7861C63.4715 79.2037 62.5309 82.2995 62.0952 84.0444C61.3111 87.1834 62.589 88.5961 65.2016 87.4785C67.0196 86.7008 67.9057 85.5606 67.9138 83.9886C67.9183 83.1 67.7284 82.6744 66.9665 81.8642C66.3316 81.1892 65.6186 80.7746 65.0927 80.7746C64.7721 80.7746 64.7295 80.6642 64.7295 79.8377C64.7295 78.9152 64.5204 78.4768 64.0804 78.4768C63.9573 78.4768 63.7827 78.616 63.6926 78.7861ZM290.587 80.117C290.482 80.2415 290.374 80.7784 290.343 81.3101L290.289 82.2769L289.625 82.3316C289.009 82.3828 288.93 82.3325 288.475 81.5805C287.825 80.504 287.447 80.5187 287.299 81.6267C287.166 82.6181 286.326 84.0455 285.772 84.2212C285.499 84.3078 285.097 84.1619 284.358 83.7073C283.275 83.0399 282.697 82.9503 281.755 83.3031C281.43 83.4251 279.334 85.315 276.797 87.775C271.186 93.2123 270.096 94.1717 268.148 95.3963C265.387 97.1323 261.802 99.5288 261.02 100.162C260.094 100.911 260.043 101.277 260.863 101.277C262.071 101.277 269.285 97.0115 272.665 94.2971C273.492 93.6324 274.752 92.3946 275.465 91.5464C278.52 87.9061 281.221 85.1933 281.795 85.1933C281.928 85.1933 282.49 85.5608 283.044 86.0104C284.006 86.7915 284.086 86.823 284.911 86.7258C285.891 86.6098 287.056 85.8953 287.754 84.9848C288.126 84.4991 288.336 84.3896 288.98 84.3494C291.04 84.2207 291.616 83.6349 291.616 81.6698C291.616 80.3507 291.452 79.8907 290.984 79.8907C290.867 79.8907 290.69 79.9926 290.587 80.117ZM145.099 80.6812C146.095 81.1437 146.302 81.4189 146.139 82.0649C145.938 82.8674 143.708 83.657 143.167 83.1174C142.976 82.9273 143.731 80.2437 143.974 80.2462C144.08 80.2468 144.586 80.4428 145.099 80.6812ZM228.81 82.5383C227.411 84.0476 226.931 85.2257 226.949 87.0996C226.965 88.5731 227.124 88.9703 227.851 89.345C228.588 89.7251 229.039 89.6802 230.254 89.1066C232.051 88.258 232.625 87.2421 232.399 85.3097C232.282 84.3087 232.15 84.1602 230.706 83.3815C229.928 82.9635 229.803 82.8216 229.803 82.3654C229.803 81.6598 229.592 81.6964 228.81 82.5383ZM64.886 82.9688C65.339 83.3009 65.8611 83.7392 66.0458 83.9428C66.3767 84.3076 66.3756 84.3197 65.9799 84.7402C65.561 85.1852 64.0328 85.6569 63.5762 85.4822C63.4189 85.4219 63.3126 85.1533 63.3126 84.8166C63.3126 84.2641 63.8336 82.3654 63.9855 82.3654C64.0277 82.3654 64.4328 82.6371 64.886 82.9688ZM167.192 84.4546C165.015 85.2663 164.202 85.9306 163.987 87.0752C163.924 87.4101 163.907 87.7189 163.95 87.7614C163.992 87.8036 164.858 87.6009 165.875 87.3112C166.891 87.0211 167.782 86.7841 167.856 86.7841C168.182 86.7841 167.917 87.3223 166.987 88.5523C165.617 90.3638 165.116 91.5111 165.016 93.0648C164.965 93.856 165.014 94.4745 165.146 94.7209C165.478 95.3405 166.825 95.8342 167.797 95.6933C168.833 95.5431 169.199 95.3536 171.886 93.579C176.106 90.7908 178.048 88.7641 178.221 86.9666C178.268 86.4773 178.237 86.0783 178.151 86.0798C178.066 86.0814 177.159 86.8002 176.136 87.6767C172.609 90.7005 169.79 92.3713 167.886 92.5673L166.876 92.6714L167.004 91.9928C167.082 91.5799 167.428 90.9642 167.89 90.419C168.927 89.1955 169.557 88.1521 169.955 86.9961C170.32 85.9391 170.401 84.5746 170.11 84.395C169.639 84.1048 168.043 84.1371 167.192 84.4546ZM193.494 86.5345C183.244 91.8601 178.351 94.7721 175.162 97.4447C173.456 98.8742 173.172 99.3881 173.701 100.09C173.945 100.415 173.417 100.714 179.413 96.8555C180.874 95.9153 183.385 94.4468 184.992 93.5919C190.352 90.7419 193.995 88.4868 195.663 86.9865C196.182 86.5202 196.328 86.2584 196.328 85.7914C196.328 85.4625 196.268 85.1948 196.195 85.1969C196.122 85.1986 194.906 85.8008 193.494 86.5345ZM305.684 86.5986C305.191 86.774 304.075 87.2785 303.205 87.7196C302.335 88.1604 300.029 89.1549 298.081 89.9288C292.239 92.2507 289.379 93.6201 288.296 94.611C287.814 95.0525 287.742 96.1032 288.182 96.2715C288.352 96.3367 289.612 95.8063 291.324 94.9475C292.898 94.1597 295.501 92.9981 297.108 92.3664C301.358 90.6961 302.329 90.2825 304.104 89.3886C306.839 88.0103 307.442 87.4347 307.094 86.5334C306.962 86.1893 306.819 86.1963 305.684 86.5986ZM260.321 88.8935C254.947 91.5849 247.622 95.5536 245.893 96.709C244.717 97.4963 244.062 98.428 244.226 99.0811C244.463 100.028 244.185 100.159 253.625 94.6472C256.158 93.1683 258.908 91.6633 259.735 91.3022C262.484 90.1056 263.986 88.8801 263.986 87.8384C263.986 87.4982 263.896 87.3143 263.73 87.3143C263.587 87.3143 262.053 88.025 260.321 88.8935ZM82.1206 88.2422C81.8874 89.1124 82.2885 90.0061 83.5135 91.3467C84.7634 92.7145 86.0551 94.7973 86.4308 96.0514C86.7571 97.1404 86.7686 99.4924 86.4532 100.706C86.2407 101.522 86.246 101.653 86.5014 101.884C86.6594 102.027 86.8753 102.088 86.9813 102.02C87.3057 101.812 87.7233 100.856 88.0398 99.599C88.3041 98.5489 88.3144 98.1979 88.1232 96.7389C87.5498 92.3664 85.9419 89.253 83.6617 88.0999C82.5359 87.5306 82.3053 87.552 82.1206 88.2422ZM41.1409 89.5296C40.4368 90.4499 39.791 91.2028 39.7053 91.2028C39.6199 91.2028 38.5123 90.6007 37.244 89.8652C35.9757 89.1294 34.8316 88.5682 34.7016 88.618C34.301 88.7715 32.4521 92.677 32.4276 93.4221C32.4077 94.0292 32.4893 94.1574 33.2743 94.7544C33.7522 95.1175 34.8905 95.7875 35.804 96.2429C38.1077 97.3917 38.4325 97.2892 39.2052 95.1691C39.676 93.8781 39.7589 93.7613 40.2438 93.7121C40.6502 93.6708 41.0904 93.8875 42.1675 94.6586C42.9355 95.2089 43.8761 95.8179 44.2576 96.0123L44.9514 96.3655L45.2699 95.9493C45.9909 95.0078 47.3744 91.9861 47.3733 91.3559C47.3717 90.5254 46.4988 89.709 44.6858 88.841C42.2695 87.6847 42.6015 87.6202 41.1409 89.5296ZM127.905 94.4284C124.72 96.3434 122.235 98.1905 120.41 99.9996C119.049 101.349 118.927 101.527 118.927 102.169C118.927 102.777 118.98 102.868 119.326 102.867C119.906 102.866 120.937 102.189 122.553 100.75C123.335 100.053 125.29 98.6235 126.898 97.5727C129.88 95.6229 130.914 94.7475 130.977 94.1192C131.059 93.2961 130.967 92.9703 130.65 92.9703C130.474 92.9703 129.238 93.6263 127.905 94.4284Z" fill="white"/>
</svg>
