<svg width="18" height="16" viewBox="0 0 18 16" fill="none" xmlns="http://www.w3.org/2000/svg">
<path d="M9 2V0M9 2C8.4696 2 7.96086 2.21071 7.58578 2.58578C7.21072 2.96086 7 3.46957 7 4C7 4.53043 7.21072 5.03914 7.58578 5.41422C7.96086 5.78929 8.4696 6 9 6M9 2C9.5304 2 10.0391 2.21071 10.4142 2.58578C10.7893 2.96086 11 3.46957 11 4C11 4.53043 10.7893 5.03914 10.4142 5.41422C10.0391 5.78929 9.5304 6 9 6M9 6V16M3 14C3.53043 14 4.03914 13.7893 4.41422 13.4142C4.78929 13.0391 5 12.5304 5 12C5 11.4696 4.78929 10.9609 4.41422 10.5858C4.03914 10.2107 3.53043 10 3 10M3 14C2.46957 14 1.96086 13.7893 1.58578 13.4142C1.21071 13.0391 1 12.5304 1 12C1 11.4696 1.21071 10.9609 1.58578 10.5858C1.96086 10.2107 2.46957 10 3 10M3 14V16M3 10V0M15 14C15.5304 14 16.0391 13.7893 16.4142 13.4142C16.7893 13.0391 17 12.5304 17 12C17 11.4696 16.7893 10.9609 16.4142 10.5858C16.0391 10.2107 15.5304 10 15 10M15 14C14.4696 14 13.9609 13.7893 13.5858 13.4142C13.2107 13.0391 13 12.5304 13 12C13 11.4696 13.2107 10.9609 13.5858 10.5858C13.9609 10.2107 14.4696 10 15 10M15 14V16M15 10V0" stroke="#626D7D"/>
</svg>
