<svg width="24" height="20" viewBox="0 0 24 20" fill="none" xmlns="http://www.w3.org/2000/svg">
<path d="M11.5327 0.0403869C10.5257 0.224318 9.80185 0.8172 9.49647 1.70827C9.4075 1.9677 9.3888 2.11503 9.39145 2.5368C9.39526 3.16018 9.47487 3.48532 9.77967 4.12241C10.2402 5.08535 10.8566 5.81665 12.5287 7.38357C13.1725 7.98703 13.9231 8.69363 14.1967 8.95382L14.694 9.42679L16.2585 7.89393C18.9119 5.29395 19.5228 4.60939 19.8674 3.85044C20.3221 2.84875 20.154 1.76283 19.4191 0.956127C18.8831 0.367677 18.2087 0.0453764 17.4312 0.00606279C16.8757 -0.0220122 16.5578 0.0435111 16.0784 0.284851C15.7726 0.438794 15.6091 0.56779 15.1951 0.98131L14.6872 1.48875L14.2121 1.03345C13.6913 0.534496 13.2976 0.274125 12.854 0.13557C12.5184 0.030686 11.8495 -0.0174415 11.5327 0.0403869ZM0 13.7993V18.0898H2.38754H4.77509V13.7993V9.50888H2.38754H0V13.7993ZM5.74865 13.7919V17.3805L7.73054 18.4064C9.77983 19.4672 10.2394 19.6636 10.9743 19.7925C11.7708 19.9322 12.7663 19.8579 13.5341 19.6015C13.9111 19.4755 16.7128 18.0919 17.7791 17.505C19.3303 16.6514 21.7814 15.099 22.9159 14.2518C23.7031 13.6638 23.9409 12.8635 23.5483 12.1226C23.3043 11.6622 22.9096 11.3839 22.3576 11.2832C21.7925 11.1801 21.6484 11.2308 19.5559 12.2695L17.669 13.206L17.4772 13.6542C17.3718 13.9008 17.2029 14.2128 17.1017 14.3476C16.6543 14.9445 15.8843 15.3468 14.9458 15.4743C14.3383 15.5568 12.9745 15.619 12.7765 15.5732C12.4946 15.5081 12.355 15.3377 12.355 15.0585C12.355 14.8682 12.3775 14.8047 12.4836 14.6982L12.6121 14.5688L13.7585 14.5665C15.0259 14.5639 15.1721 14.541 15.7856 14.2474C16.1878 14.055 16.5109 13.7711 16.6449 13.4929C16.8434 13.0802 16.698 12.586 16.2978 12.3137C15.9705 12.091 15.8695 12.078 14.4357 12.0759L13.0857 12.0738L12.4654 11.698C11.5961 11.1713 10.6562 10.7165 9.89694 10.455L9.24886 10.2317L7.49874 10.2175L5.74865 10.2032V13.7919Z" fill="#36A37D"/>
</svg>
